<?xml version="1.0" encoding="UTF-8" standalone="no"?>
<svg
   version="1.1"
   width="256"
   height="256"
   viewBox="0 0 256 256"
   xml:space="preserve"
   id="svg3"
   xmlns="http://www.w3.org/2000/svg"
   xmlns:svg="http://www.w3.org/2000/svg"><defs
   id="defs3" />
<rect
   style="display:none;fill:#0000ff"
   id="rect6"
   width="256"
   height="256"
   x="0"
   y="0" /><g
   style="opacity:1;fill:#ffffff;fill-rule:nonzero;stroke:none;stroke-width:0;stroke-linecap:butt;stroke-linejoin:miter;stroke-miterlimit:10;stroke-dasharray:none"
   transform="matrix(2.1633306,0,0,1.9158107,30.650123,48.466682)"
   id="g3">
	<path
   d="M 80.89,78.772 H 9.11 C 4.087,78.772 0,74.685 0,69.662 V 20.338 c 0,-5.023 4.087,-9.11 9.11,-9.11 h 71.78 c 5.023,0 9.11,4.087 9.11,9.11 v 49.324 c 0,5.024 -4.087,9.11 -9.11,9.11 z M 9.11,17.228 C 7.395,17.228 6,18.624 6,20.338 v 49.324 c 0,1.715 1.395,3.11 3.11,3.11 h 71.78 c 1.715,0 3.11,-1.396 3.11,-3.11 V 20.338 c 0,-1.715 -1.396,-3.11 -3.11,-3.11 z"
   style="opacity:1;fill:#ffffff;fill-rule:nonzero;stroke:none;stroke-width:1;stroke-linecap:butt;stroke-linejoin:miter;stroke-miterlimit:10;stroke-dasharray:none"
   stroke-linecap="round"
   id="path1" />
	<path
   d="m 45,55.427 c -5.408,0 -10.599,-2.292 -14.242,-6.288 L 2.493,18.125 6.928,14.083 35.193,45.096 c 2.545,2.792 6.028,4.331 9.807,4.331 3.779,0 7.262,-1.538 9.808,-4.331 L 83.074,14.083 87.508,18.125 59.241,49.138 C 55.599,53.135 50.408,55.427 45,55.427 Z"
   style="opacity:1;fill:#ffffff;fill-rule:nonzero;stroke:none;stroke-width:1;stroke-linecap:butt;stroke-linejoin:miter;stroke-miterlimit:10;stroke-dasharray:none"
   stroke-linecap="round"
   id="path2" />
	<rect
   x="-0.95999998"
   y="57.16"
   rx="0"
   ry="0"
   width="38.98"
   height="6"
   style="opacity:1;fill:#ffffff;fill-rule:nonzero;stroke:none;stroke-width:1;stroke-linecap:butt;stroke-linejoin:miter;stroke-miterlimit:10;stroke-dasharray:none"
   transform="matrix(0.7053,-0.7089,0.7089,0.7053,-37.1881,30.8639)"
   id="rect2" />
	<rect
   x="68.470001"
   y="40.669998"
   rx="0"
   ry="0"
   width="6"
   height="38.98"
   style="opacity:1;fill:#ffffff;fill-rule:nonzero;stroke:none;stroke-width:1;stroke-linecap:butt;stroke-linejoin:miter;stroke-miterlimit:10;stroke-dasharray:none"
   transform="matrix(0.709,-0.7053,0.7053,0.709,-21.628,67.9146)"
   id="rect3" />
</g>
<g
   style="opacity:1;fill:#ffffff;fill-rule:nonzero;stroke:none;stroke-width:0;stroke-linecap:butt;stroke-linejoin:miter;stroke-miterlimit:10;stroke-dasharray:none"
   transform="matrix(2.2275333,0,0,2.1448805,27.761002,38.15854)"
   id="g5">
	<path
   d="M 80.89,78.772 H 9.11 C 4.087,78.772 0,74.685 0,69.662 V 20.338 c 0,-5.023 4.087,-9.11 9.11,-9.11 h 71.78 c 5.023,0 9.11,4.087 9.11,9.11 v 49.324 c 0,5.024 -4.087,9.11 -9.11,9.11 z M 9.11,17.228 C 7.395,17.228 6,18.624 6,20.338 v 49.324 c 0,1.715 1.395,3.11 3.11,3.11 h 71.78 c 1.715,0 3.11,-1.396 3.11,-3.11 V 20.338 c 0,-1.715 -1.396,-3.11 -3.11,-3.11 z"
   style="opacity:1;fill:#ffffff;fill-rule:nonzero;stroke:none;stroke-width:1;stroke-linecap:butt;stroke-linejoin:miter;stroke-miterlimit:10;stroke-dasharray:none"
   stroke-linecap="round"
   id="path3" />
	<path
   d="m 45,55.427 c -5.408,0 -10.599,-2.292 -14.242,-6.288 L 2.493,18.125 6.928,14.083 35.193,45.096 c 2.545,2.792 6.028,4.331 9.807,4.331 3.779,0 7.262,-1.538 9.808,-4.331 L 83.074,14.083 87.508,18.125 59.241,49.138 C 55.599,53.135 50.408,55.427 45,55.427 Z"
   style="opacity:1;fill:#ffffff;fill-rule:nonzero;stroke:none;stroke-width:1;stroke-linecap:butt;stroke-linejoin:miter;stroke-miterlimit:10;stroke-dasharray:none"
   stroke-linecap="round"
   id="path4" />
	<rect
   x="-0.95999998"
   y="57.16"
   rx="0"
   ry="0"
   width="38.98"
   height="6"
   style="opacity:1;fill:#ffffff;fill-rule:nonzero;stroke:none;stroke-width:1;stroke-linecap:butt;stroke-linejoin:miter;stroke-miterlimit:10;stroke-dasharray:none"
   transform="matrix(0.7053,-0.7089,0.7089,0.7053,-37.1881,30.8639)"
   id="rect4" />
	<rect
   x="68.470001"
   y="40.669998"
   rx="0"
   ry="0"
   width="6"
   height="38.98"
   style="opacity:1;fill:#ffffff;fill-rule:nonzero;stroke:none;stroke-width:1;stroke-linecap:butt;stroke-linejoin:miter;stroke-miterlimit:10;stroke-dasharray:none"
   transform="matrix(0.709,-0.7053,0.7053,0.709,-21.628,67.9146)"
   id="rect5" />
</g></svg>
