<?xml version="1.0" encoding="UTF-8" standalone="no"?>
<svg
   class="w-6 h-6"
   fill="none"
   stroke="white"
   viewBox="0 0 24 24"
   version="1.1"
   id="svg1"
   sodipodi:docname="phone.svg"
   inkscape:version="1.4.2 (f4327f4, 2025-05-13)"
   xmlns:inkscape="http://www.inkscape.org/namespaces/inkscape"
   xmlns:sodipodi="http://sodipodi.sourceforge.net/DTD/sodipodi-0.dtd"
   xmlns="http://www.w3.org/2000/svg"
   xmlns:svg="http://www.w3.org/2000/svg">
  <defs
     id="defs1">
    <clipPath
       clipPathUnits="userSpaceOnUse"
       id="clipPath39">
      <path
         d="M 132.066,47.971 H 713.185 V 534.684 H 132.066 Z"
         transform="translate(-434.26271,-159.6152)"
         id="path39" />
    </clipPath>
  </defs>
  <sodipodi:namedview
     id="namedview1"
     pagecolor="#ffffff"
     bordercolor="#000000"
     borderopacity="0.25"
     inkscape:showpageshadow="2"
     inkscape:pageopacity="0.0"
     inkscape:pagecheckerboard="0"
     inkscape:deskcolor="#d1d1d1"
     inkscape:zoom="10.479167"
     inkscape:cx="18.417495"
     inkscape:cy="11.785288"
     inkscape:window-width="1366"
     inkscape:window-height="705"
     inkscape:window-x="-8"
     inkscape:window-y="-8"
     inkscape:window-maximized="1"
     inkscape:current-layer="svg1" />
  <path
     id="path38"
     d="M 0,0 C 0,-4.031 -3.285,-7.31 -7.317,-7.31 H -32.37 c -4.032,0 -7.317,3.279 -7.317,7.31 v 23.496 c 0,4.034 3.285,7.314 7.317,7.314 H -7.317 C -3.285,30.81 0,27.53 0,23.496 Z m -5.985,-21.799 c -2.877,0 -5.209,2.336 -5.209,5.213 0,2.878 2.332,5.213 5.209,5.213 2.879,0 5.212,-2.335 5.212,-5.213 0,-2.877 -2.333,-5.213 -5.212,-5.213 m 0,-13.361 c -2.877,0 -5.209,2.332 -5.209,5.211 0,2.877 2.332,5.211 5.209,5.211 2.879,0 5.212,-2.334 5.212,-5.211 0,-2.879 -2.333,-5.211 -5.212,-5.211 m 0,-13.363 c -2.877,0 -5.209,2.332 -5.209,5.212 0,2.875 2.332,5.21 5.209,5.21 2.879,0 5.212,-2.335 5.212,-5.21 0,-2.88 -2.333,-5.212 -5.212,-5.212 m -13.857,26.724 c -2.88,0 -5.213,2.336 -5.213,5.213 0,2.878 2.333,5.213 5.213,5.213 2.877,0 5.209,-2.335 5.209,-5.213 0,-2.877 -2.332,-5.213 -5.209,-5.213 m 0,-13.361 c -2.88,0 -5.213,2.332 -5.213,5.211 0,2.877 2.333,5.211 5.213,5.211 2.877,0 5.209,-2.334 5.209,-5.211 0,-2.879 -2.332,-5.211 -5.209,-5.211 m 0,-13.363 c -2.88,0 -5.213,2.332 -5.213,5.212 0,2.875 2.333,5.21 5.213,5.21 2.877,0 5.209,-2.335 5.209,-5.21 0,-2.88 -2.332,-5.212 -5.209,-5.212 m -13.859,26.724 c -2.881,0 -5.213,2.336 -5.213,5.213 0,2.878 2.332,5.213 5.213,5.213 2.876,0 5.212,-2.335 5.212,-5.213 0,-2.877 -2.336,-5.213 -5.212,-5.213 m 0,-13.361 c -2.881,0 -5.213,2.332 -5.213,5.211 0,2.877 2.332,5.211 5.213,5.211 2.876,0 5.212,-2.334 5.212,-5.211 0,-2.879 -2.336,-5.211 -5.212,-5.211 m 0,-13.363 c -2.881,0 -5.213,2.332 -5.213,5.212 0,2.875 2.332,5.21 5.213,5.21 2.876,0 5.212,-2.335 5.212,-5.21 0,-2.88 -2.336,-5.212 -5.212,-5.212 M -4.304,39.411 H -30.6 v 7.984 c 0,2.215 -1.796,4.011 -4.014,4.011 -2.214,0 -4.007,-1.796 -4.007,-4.011 v -8.436 c -5.155,-1.422 -8.947,-6.13 -8.947,-11.736 v -69.358 c 0,-6.731 5.455,-12.187 12.184,-12.187 h 31.08 c 6.734,0 12.188,5.456 12.188,12.187 v 69.358 c 0,6.731 -5.454,12.188 -12.188,12.188"
     style="display:inline;fill:#ffffff;fill-opacity:1;fill-rule:nonzero;stroke:none"
     transform="matrix(0.29080715,0,0,-0.19322399,17.770195,11.718279)"
     clip-path="url(#clipPath39)" />
</svg>
