<?xml version="1.0" encoding="UTF-8" standalone="no"?>
<svg
   class="w-6 h-6"
   fill="none"
   stroke="#ffffff"
   viewBox="0 0 576 576"
   version="1.1"
   id="svg1"
   sodipodi:docname="calendar.svg"
   inkscape:export-filename="mail.png"
   inkscape:export-xdpi="96"
   inkscape:export-ydpi="96"
   width="576"
   height="576"
   xmlns:inkscape="http://www.inkscape.org/namespaces/inkscape"
   xmlns:sodipodi="http://sodipodi.sourceforge.net/DTD/sodipodi-0.dtd"
   xmlns="http://www.w3.org/2000/svg"
   xmlns:svg="http://www.w3.org/2000/svg">
  <defs
     id="defs1" />
  <sodipodi:namedview
     id="namedview1"
     pagecolor="#ffffff"
     bordercolor="#000000"
     borderopacity="0.25"
     inkscape:showpageshadow="2"
     inkscape:pageopacity="0.0"
     inkscape:pagecheckerboard="0"
     inkscape:deskcolor="#d1d1d1">
    <inkscape:page
       x="0"
       y="0"
       width="576"
       height="576"
       id="page2"
       margin="0"
       bleed="0" />
  </sodipodi:namedview>
  <g
     style="fill:#ffffff;fill-rule:nonzero;stroke:none;stroke-width:0;stroke-linecap:butt;stroke-linejoin:miter;stroke-miterlimit:10;stroke-dasharray:none"
     transform="matrix(0.22222222,0,0,0.22222222,2.0000001,2.0000001)"
     id="g3">
	<path
   d="M 80.89,78.772 H 9.11 C 4.087,78.772 0,74.685 0,69.662 V 20.338 c 0,-5.023 4.087,-9.11 9.11,-9.11 h 71.78 c 5.023,0 9.11,4.087 9.11,9.11 v 49.324 c 0,5.024 -4.087,9.11 -9.11,9.11 z M 9.11,17.228 C 7.395,17.228 6,18.624 6,20.338 v 49.324 c 0,1.715 1.395,3.11 3.11,3.11 h 71.78 c 1.715,0 3.11,-1.396 3.11,-3.11 V 20.338 c 0,-1.715 -1.396,-3.11 -3.11,-3.11 z"
   style="opacity:1;fill:#ffffff;fill-rule:nonzero;stroke:none;stroke-width:1;stroke-linecap:butt;stroke-linejoin:miter;stroke-miterlimit:10;stroke-dasharray:none"
   stroke-linecap="round"
   id="path1-5" />

	<path
   d="m 45,55.427 c -5.408,0 -10.599,-2.292 -14.242,-6.288 L 2.493,18.125 6.928,14.083 35.193,45.096 c 2.545,2.792 6.028,4.331 9.807,4.331 3.779,0 7.262,-1.538 9.808,-4.331 L 83.074,14.083 87.508,18.125 59.241,49.138 C 55.599,53.135 50.408,55.427 45,55.427 Z"
   style="opacity:1;fill:#ffffff;fill-rule:nonzero;stroke:none;stroke-width:1;stroke-linecap:butt;stroke-linejoin:miter;stroke-miterlimit:10;stroke-dasharray:none"
   stroke-linecap="round"
   id="path2" />

	<rect
   x="-0.95999998"
   y="57.16"
   rx="0"
   ry="0"
   width="38.98"
   height="6"
   style="opacity:1;fill:#ffffff;fill-rule:nonzero;stroke:none;stroke-width:1;stroke-linecap:butt;stroke-linejoin:miter;stroke-miterlimit:10;stroke-dasharray:none"
   transform="matrix(0.7053,-0.7089,0.7089,0.7053,-37.1881,30.8639)"
   id="rect2" />

	<rect
   x="68.470001"
   y="40.669998"
   rx="0"
   ry="0"
   width="6"
   height="38.98"
   style="opacity:1;fill:#ffffff;fill-rule:nonzero;stroke:none;stroke-width:1;stroke-linecap:butt;stroke-linejoin:miter;stroke-miterlimit:10;stroke-dasharray:none"
   transform="matrix(0.709,-0.7053,0.7053,0.709,-21.628,67.9146)"
   id="rect3" />

</g>
</svg>
